<?xml version="1.0" encoding="iso-8859-1"?>
<!-- Generator: Adobe Illustrator 19.0.0, SVG Export Plug-In . SVG Version: 6.00 Build 0)  -->
<svg version="1.1" id="Layer_1" xmlns="http://www.w3.org/2000/svg" xmlns:xlink="http://www.w3.org/1999/xlink" x="0px" y="0px"
	 viewBox="0 0 188.444 188.444" style="enable-background:new 0 0 188.444 188.444;" xml:space="preserve">
<g>
	<g>
		<g>
			<path d="M169.93,0.002H18.511C8.305,0.002,0,8.287,0,18.469v99.777c0,10.182,8.305,18.467,18.511,18.467h3.659h7.39h18.475h7.39
				H73.9h7.39v38.786c0,7.137,5.802,12.943,12.932,12.943s12.932-5.806,12.932-12.943v-38.786h18.475h7.39h18.475h7.39h11.049
				c10.206,0,18.511-8.285,18.511-18.467V18.469C188.441,8.287,180.136,0.002,169.93,0.002z M55.424,7.392h18.475v22.973
				c-1.554-0.423-3.11-0.824-4.646-1.208c-4.635-1.162-8.387-3.175-12.017-5.127c-0.599-0.321-1.206-0.639-1.812-0.958V7.392z
				 M29.559,7.392h18.475V19.79c-4.947-1.649-10.757-2.196-18.475-0.081V7.392z M22.171,129.325h-3.66v-0.001
				c-6.132,0-11.121-4.969-11.121-11.077V18.469c0-6.109,4.989-11.077,11.121-11.077h3.659v15.607
				c-3.554,2.456-6.27,5.923-7.965,10.301c-4.469,11.539-0.882,26.362,2.95,32.749c1.243,2.072,2.943,3.763,5.016,5.064V129.325z
				 M23.492,62.245c-3.123-5.203-5.771-17.555-2.394-26.276c1.786-4.622,4.903-7.541,9.522-8.926c3.186-0.956,5.91-1.364,8.35-1.364
				c5.726,0,9.887,2.237,14.767,4.86c3.841,2.064,8.195,4.402,13.723,5.784c6.915,1.732,21.305,5.326,24.208,11.64
				c0.909,1.978,0.662,4.312-0.752,7.141c-2.874,5.741-10.047,5.301-20.669,3.991c-8.07-0.999-15.691-1.945-20.825,2.165
				c-5.164,4.135-13.002,6.264-19.055,5.167C27.12,65.842,24.807,64.435,23.492,62.245z M73.899,66.954V77.69
				c-0.326-0.015-0.624-0.095-0.955-0.095h-17.52V66.293c3.158-1.187,8.606-0.518,13.914,0.138
				C70.815,66.613,72.347,66.798,73.899,66.954z M48.034,70.726v6.957c-7.237,0.334-14.194,4.366-18.475,10.249V73.745
				c1.329,0.209,2.69,0.35,4.094,0.35C38.442,74.095,43.517,72.878,48.034,70.726z M48.034,129.324H29.559v-14.656l18.475,0.616
				V129.324z M73.899,129.324H55.424V115.53l18.475,0.616V129.324z M30.559,107.31l2.477-9.912
				c1.682-6.73,8.986-12.413,15.952-12.413h23.956c3.063,0,5.616,1.093,7.191,3.082c1.568,1.981,2.046,4.702,1.348,7.664
				l-3.098,13.174L30.559,107.31z M99.764,175.5L99.764,175.5c-0.001,3.063-2.487,5.553-5.543,5.553
				c-3.056,0-5.542-2.49-5.542-5.553v-38.786h11.085V175.5z M99.764,129.324h-14.78h-3.696v-12.932h0.002
				c1.709,0,3.201-1.176,3.596-2.847l3.792-16.118c1.225-5.211,0.249-10.161-2.749-13.946c-1.266-1.599-2.868-2.82-4.64-3.784V67.3
				c6.65-0.189,12.849-2.119,16.237-8.89c2.446-4.897,2.735-9.446,0.855-13.535c-2.688-5.847-9.39-9.538-17.092-12.238V7.392h18.475
				V129.324z M159.112,33.256c1.234,2.136,1.564,4.626,0.929,7.007c-0.635,2.378-2.155,4.367-4.284,5.594l-3.774,2.179h-0.491v0.283
				l-24.587,14.197c-2.123,1.227-4.61,1.551-6.987,0.909c-2.383-0.642-4.373-2.172-5.604-4.305
				c-1.234-2.136-1.564-4.626-0.929-7.007c0.633-2.378,2.154-4.366,4.283-5.593l28.852-16.66c1.411-0.815,2.98-1.23,4.572-1.23
				c0.805,0,1.617,0.105,2.416,0.321C155.891,29.593,157.881,31.123,159.112,33.256z M151.492,56.854v5.396l-22.169,12.8v-5.502
				c0.429-0.201,0.862-0.391,1.277-0.63L151.492,56.854z M129.323,7.392h22.169v13.903c-3.011-0.075-5.995,0.623-8.667,2.164
				l-13.502,7.797V7.392z M107.153,7.392h14.78v28.131l-7.96,4.596c-3.08,1.778-5.41,4.461-6.82,7.658V7.392z M125.628,129.323
				h-18.475V61.144c0.246,0.56,0.449,1.135,0.76,1.672c2.217,3.839,5.797,6.589,10.082,7.743c1.303,0.353,2.624,0.521,3.938,0.553
				v9.173c-1.779,1.943-3.137,4.249-3.836,6.871c-1.142,4.287-0.55,8.765,1.669,12.608c1.465,2.537,3.511,4.523,5.862,5.929V129.323
				z M151.491,129.324h-18.474v-21.318c0.392,0.028,0.782,0.076,1.176,0.076c2.811,0,5.658-0.715,8.26-2.215l9.038-5.219V129.324z
				 M138.758,99.465c-4.395,2.54-10.045,1.014-12.591-3.395c-1.234-2.14-1.564-4.626-0.929-7.007
				c0.633-2.378,2.154-4.366,4.283-5.593l28.854-16.66c2.125-1.227,4.608-1.555,6.987-0.909c2.381,0.642,4.371,2.169,5.604,4.305
				c1.234,2.14,1.564,4.626,0.929,7.007c-0.633,2.378-2.154,4.366-4.283,5.593L138.758,99.465z M169.93,129.324h-11.049V96.381
				l12.425-7.174c3.841-2.215,6.585-5.798,7.729-10.089c1.142-4.286,0.548-8.765-1.671-12.607c-2.217-3.839-5.797-6.589-10.08-7.743
				c-2.801-0.757-5.67-0.695-8.404,0.006v-6.186l0.57-0.329c3.839-2.215,6.585-5.798,7.729-10.089
				c1.142-4.286,0.55-8.765-1.669-12.607c-1.586-2.746-3.89-4.904-6.63-6.35V7.392h11.049c6.132,0,11.121,4.969,11.121,11.077
				v99.778h0.001C181.051,124.356,176.062,129.324,169.93,129.324z"/>
			<path d="M44.339,48.036c0-6.113-4.972-11.085-11.085-11.085c-6.113,0-11.085,4.972-11.085,11.085s4.973,11.085,11.085,11.085
				S44.339,54.149,44.339,48.036z M29.559,48.036c0-2.039,1.658-3.695,3.695-3.695c2.037,0,3.695,1.656,3.695,3.695
				s-1.658,3.695-3.695,3.695C31.217,51.731,29.559,50.075,29.559,48.036z"/>
		</g>
	</g>
</g>
<g>
</g>
<g>
</g>
<g>
</g>
<g>
</g>
<g>
</g>
<g>
</g>
<g>
</g>
<g>
</g>
<g>
</g>
<g>
</g>
<g>
</g>
<g>
</g>
<g>
</g>
<g>
</g>
<g>
</g>
</svg>
