<?xml version="1.0" encoding="iso-8859-1"?>
<!-- Generator: Adobe Illustrator 18.0.0, SVG Export Plug-In . SVG Version: 6.00 Build 0)  -->
<!DOCTYPE svg PUBLIC "-//W3C//DTD SVG 1.1//EN" "http://www.w3.org/Graphics/SVG/1.1/DTD/svg11.dtd">
<svg version="1.1" id="Capa_1" xmlns="http://www.w3.org/2000/svg" xmlns:xlink="http://www.w3.org/1999/xlink" x="0px" y="0px"
	 viewBox="0 0 173.891 173.891" style="enable-background:new 0 0 173.891 173.891;" xml:space="preserve">
<g>
	<path d="M153.72,132.438h-16.102l-8.027-22.265c-0.01-0.029-0.02-0.059-0.031-0.088l-2.203-6.11
		c-1.072-2.974-3.895-4.956-7.056-4.956H77.103V74.916h40.018c4.142,0,7.5-3.358,7.5-7.5s-3.358-7.5-7.5-7.5H77.103V42.801
		c0-4.142-3.358-7.5-7.5-7.5c-4.142,0-7.5,3.358-7.5,7.5v14.414c-28.237,4.423-49.432,28.614-49.432,57.967
		c0,32.372,26.336,58.708,58.708,58.708c23.425,0,43.682-13.796,53.093-33.686l0.821,2.276c1.072,2.974,3.895,4.956,7.056,4.956
		h21.371c4.142,0,7.5-3.358,7.5-7.5C161.22,135.795,157.862,132.438,153.72,132.438z M115.086,115.183
		c0,24.101-19.607,43.708-43.707,43.708c-24.101,0-43.708-19.607-43.708-43.708c0-21.026,14.605-38.494,34.432-42.72v34.055
		c0,4.142,3.358,7.5,7.5,7.5h45.429l0.029,0.08C115.069,114.459,115.086,114.819,115.086,115.183z"/>
	<path d="M69.835,29.272c8.082,0,14.633-6.554,14.633-14.639C84.468,6.556,77.917,0,69.835,0c-8.084,0-14.641,6.556-14.641,14.634
		C55.194,22.719,61.751,29.272,69.835,29.272z"/>
</g>
<g>
</g>
<g>
</g>
<g>
</g>
<g>
</g>
<g>
</g>
<g>
</g>
<g>
</g>
<g>
</g>
<g>
</g>
<g>
</g>
<g>
</g>
<g>
</g>
<g>
</g>
<g>
</g>
<g>
</g>
</svg>
