<?xml version="1.0" encoding="iso-8859-1"?>
<!-- Generator: Adobe Illustrator 19.0.0, SVG Export Plug-In . SVG Version: 6.00 Build 0)  -->
<svg version="1.1" id="Layer_1" xmlns="http://www.w3.org/2000/svg" xmlns:xlink="http://www.w3.org/1999/xlink" x="0px" y="0px"
	 viewBox="0 0 512 512" style="enable-background:new 0 0 512 512;" xml:space="preserve">
<g>
	<g>
		<path d="M490.688,469.333h-10.667v-10.667c0-5.888-4.779-10.667-10.667-10.667h-10.667v-10.667
			c0-5.888-4.779-10.667-10.667-10.667h-11.029L427.029,128h21.397c5.888,0,10.667-4.779,10.667-10.667
			c0-4.757-3.115-8.789-7.424-10.176L261.184,1.344c-3.2-1.792-7.147-1.792-10.347,0l-192,106.667
			c-4.245,2.347-6.357,7.296-5.141,12.011S59.157,128,64.021,128h20.971l-9.963,298.667H64c-5.888,0-10.667,4.779-10.667,10.667V448
			H42.667C36.779,448,32,452.779,32,458.667v10.667H21.333c-5.888,0-10.667,4.779-10.667,10.667v21.333
			c0,5.888,4.779,10.667,10.667,10.667h469.333c5.888,0,10.667-4.779,10.667-10.667V480
			C501.355,474.112,496.576,469.333,490.688,469.333z M224.021,53.333c0-3.691,1.92-7.125,5.056-9.067
			c3.136-1.941,7.083-2.112,10.368-0.469L256,52.075l16.555-8.277c3.307-1.643,7.232-1.493,10.368,0.469
			c3.179,1.941,5.099,5.376,5.099,9.067v32c0,5.888-4.779,10.667-10.667,10.667s-10.667-4.779-10.667-10.667V70.592l-5.888,2.944
			c-3.008,1.493-6.549,1.493-9.536,0l-5.909-2.944v14.741c0,5.888-4.779,10.667-10.667,10.667s-10.667-4.779-10.667-10.667V53.333z
			 M373.717,426.667h-43.029v-160c0-41.173-33.493-74.667-74.667-74.667s-74.667,33.493-74.667,74.667v160h-43.029L128.363,128
			h255.296L373.717,426.667z"/>
	</g>
</g>
<g>
</g>
<g>
</g>
<g>
</g>
<g>
</g>
<g>
</g>
<g>
</g>
<g>
</g>
<g>
</g>
<g>
</g>
<g>
</g>
<g>
</g>
<g>
</g>
<g>
</g>
<g>
</g>
<g>
</g>
</svg>
