<?xml version="1.0" encoding="iso-8859-1"?>
<!-- Generator: Adobe Illustrator 18.0.0, SVG Export Plug-In . SVG Version: 6.00 Build 0)  -->
<!DOCTYPE svg PUBLIC "-//W3C//DTD SVG 1.1//EN" "http://www.w3.org/Graphics/SVG/1.1/DTD/svg11.dtd">
<svg version="1.1" id="Capa_1" xmlns="http://www.w3.org/2000/svg" xmlns:xlink="http://www.w3.org/1999/xlink" x="0px" y="0px"
	 viewBox="0 0 297 297" style="enable-background:new 0 0 297 297;" xml:space="preserve">
<g>
	<path d="M225.687,0H158.72c-26.913,0-48.984,19.426-48.984,43.302v22.881C89.668,70.31,72.19,81.274,60.094,98.331H45.832
		c-7.303,0-13.223,6.243-13.223,13.546s5.92,13.546,13.223,13.546h160.705c7.303,0,13.223-6.243,13.223-13.546
		s-5.92-13.546-13.223-13.546h-13.432c-13.48-18.061-34.204-30.574-56.278-33.275V43.302c0-9.295,9.561-17.214,21.893-17.214h66.967
		c12.436,0,22.515,10.214,22.515,22.329v235.361c0,7.303,5.741,13.223,13.044,13.223c7.303,0,13.044-5.92,13.044-13.223V48.417
		C274.29,21.719,252.704,0,225.687,0z M98.373,98.331c8.402-5.017,18.09-7.743,28.226-7.743c10.137,0,19.824,2.726,28.227,7.743
		H98.373z"/>
	<path d="M123.281,137.312c-7.303,0-13.546,5.92-13.546,13.223v6.103c0,7.303,6.243,13.223,13.546,13.223
		c7.303,0,13.546-5.92,13.546-13.223v-6.103C136.827,143.232,130.584,137.312,123.281,137.312z"/>
	<path d="M123.281,187.151c-7.303,0-13.546,5.92-13.546,13.223v9.154c0,7.303,6.243,13.223,13.546,13.223
		c7.303,0,13.546-5.92,13.546-13.223v-9.154C136.827,193.071,130.584,187.151,123.281,187.151z"/>
	<path d="M123.281,239.024c-7.303,0-13.546,5.92-13.546,13.223v6.103c0,7.303,6.243,13.223,13.546,13.223
		c7.303,0,13.546-5.92,13.546-13.223v-6.103C136.827,244.944,130.584,239.024,123.281,239.024z"/>
	<path d="M74.122,138.032c-6.929-2.306-14.418,1.433-16.726,8.362l-1.93,5.79c-2.309,6.928,1.435,14.417,8.362,16.726
		c1.388,0.462,2.797,0.682,4.184,0.682c5.536,0,10.696-3.504,12.542-9.045l1.93-5.79C84.793,147.83,81.049,140.341,74.122,138.032z"
		/>
	<path d="M58.491,184.917c-6.933-2.307-14.418,1.434-16.727,8.361l-2.74,8.219c-2.309,6.928,1.434,14.417,8.361,16.727
		c1.389,0.462,2.798,0.682,4.185,0.682c5.536,0,10.695-3.504,12.542-9.044l2.74-8.219C69.162,194.716,65.418,187.227,58.491,184.917
		z"/>
	<path d="M42.048,234.23c-6.928-2.308-14.418,1.433-16.726,8.362l-1.93,5.79c-2.309,6.928,1.435,14.417,8.362,16.726
		c1.388,0.462,2.797,0.682,4.184,0.682c5.536,0,10.696-3.504,12.542-9.045l1.93-5.79C52.72,244.028,48.976,236.54,42.048,234.23z"/>
	<path d="M189.031,152.184l-1.93-5.79c-2.31-6.927-9.795-10.669-16.726-8.362c-6.927,2.309-10.672,9.798-8.362,16.726l1.93,5.79
		c1.848,5.541,7.006,9.045,12.542,9.045c1.386,0,2.796-0.221,4.184-0.682C187.595,166.601,191.34,159.112,189.031,152.184z"/>
	<path d="M205.472,201.498l-2.74-8.219c-2.311-6.927-9.802-10.669-16.727-8.361c-6.927,2.31-10.671,9.799-8.361,16.727l2.74,8.219
		c1.848,5.54,7.007,9.044,12.542,9.044c1.387,0,2.797-0.221,4.185-0.682C204.038,215.914,207.782,208.426,205.472,201.498z"/>
	<path d="M219.174,242.593c-2.31-6.927-9.795-10.669-16.726-8.362c-6.927,2.309-10.672,9.798-8.362,16.726l1.93,5.79
		c1.848,5.541,7.006,9.045,12.542,9.045c1.386,0,2.796-0.221,4.184-0.682c6.927-2.309,10.672-9.798,8.362-16.726L219.174,242.593z"
		/>
</g>
<g>
</g>
<g>
</g>
<g>
</g>
<g>
</g>
<g>
</g>
<g>
</g>
<g>
</g>
<g>
</g>
<g>
</g>
<g>
</g>
<g>
</g>
<g>
</g>
<g>
</g>
<g>
</g>
<g>
</g>
</svg>
